<?xml version="1.0" encoding="UTF-8"?>
<svg version="1.1" xmlns="http://www.w3.org/2000/svg" width="575" height="138">
<path d="M0 0 C1.32 0 2.64 0 4 0 C3.50372318 4.79132712 1.19771508 8.02090287 -1.5625 11.8125 C-1.98724609 12.40998047 -2.41199219 13.00746094 -2.84960938 13.62304688 C-3.89223259 15.08740533 -4.94510452 16.54445735 -6 18 C-2.61328496 21.66038898 1.18600451 24.40850722 5.25 27.25 C5.8996875 27.70890625 6.549375 28.1678125 7.21875 28.640625 C8.81004999 29.76389558 10.40469095 30.88243056 12 32 C15.17391668 28.99764638 17.71252601 25.80246358 20.25 22.25 C21.30960938 20.77273437 21.30960938 20.77273437 22.390625 19.265625 C23.18726562 18.14414062 23.18726562 18.14414062 24 17 C25.98 17.495 25.98 17.495 28 18 C27.44164285 22.13782532 25.01264848 24.89251778 22.5 28.0625 C19.19985938 32.2037357 19.19985938 32.2037357 17 37 C17.53625 37.2475 18.0725 37.495 18.625 37.75 C21.56424252 39.29696975 24.25754408 41.13014369 27 43 C25.40956621 48.08938811 22.2553049 51.87456643 19 56 C17.68 55.67 16.36 55.34 15 55 C14.57589844 55.59167969 14.15179688 56.18335938 13.71484375 56.79296875 C8.65041421 63.61603537 3.60133996 69.18048578 -5 71 C-11.01101799 71.42293091 -16.37828785 71.43101066 -22 69 C-22.24878906 69.54140625 -22.49757813 70.0828125 -22.75390625 70.640625 C-24.27320815 73.51729694 -26.05366165 76.09789238 -27.9375 78.75 C-28.62714844 79.73484375 -29.31679688 80.7196875 -30.02734375 81.734375 C-30.67832031 82.48203125 -31.32929688 83.2296875 -32 84 C-35.99904969 84 -37.80200422 82.27413033 -41 80 C-39.19248987 74.73048635 -36.00716073 70.94599455 -32.58203125 66.62109375 C-30.77251498 64.19680502 -30.77251498 64.19680502 -31.16796875 61.8203125 C-32.03721043 59.83779485 -32.03721043 59.83779485 -33.5 57.4375 C-36.54223923 50.46570177 -36.85270168 43.32409593 -34.1015625 36.21484375 C-32.11522722 32.22104196 -29.62687995 28.59602013 -27 25 C-27.66 23.68 -28.32 22.36 -29 21 C-26.36 17.37 -23.72 13.74 -21 10 C-17 11 -17 11 -14.9375 12.5625 C-13.00053972 14.29792346 -13.00053972 14.29792346 -10 14 C-7.76115685 11.06969444 -5.7540308 8.07410182 -3.75976562 4.9765625 C-2.59961935 3.25130704 -1.30605561 1.61761074 0 0 Z " fill="#FFFFFF" transform="translate(60,39)"/>
<path d="M0 0 C2.22485385 -0.21676519 4.45580463 -0.3715571 6.6875 -0.5 C8.54955078 -0.63921875 8.54955078 -0.63921875 10.44921875 -0.78125 C14.56947638 0.12529733 14.56947638 0.12529733 16.5625 3.09375 C19.99525498 9.47381986 22.60799687 16.28734319 25.3125 23 C25.86716071 24.36095353 26.42249414 25.7216331 26.97851562 27.08203125 C28.32677769 30.38489963 29.66590909 33.69137807 31 37 C30.98839844 35.73285156 30.97679687 34.46570313 30.96484375 33.16015625 C30.95545581 31.46093899 30.94635669 29.76172011 30.9375 28.0625 C30.92912109 27.23169922 30.92074219 26.40089844 30.91210938 25.54492188 C30.89033044 19.94773559 31.28840732 14.55266418 32 9 C31.37738281 8.88398437 30.75476563 8.76796875 30.11328125 8.6484375 C28 8 28 8 26.1875 5.625 C25 3 25 3 26 0 C37.42664503 -1.05399508 37.42664503 -1.05399508 41.01171875 1.34765625 C42.50616117 3.29599808 43.39181259 4.61132192 44 7 C43.85191895 7.84401367 43.70383789 8.68802734 43.55126953 9.55761719 C42.87354336 13.78965394 42.78861386 17.9164618 42.71875 22.1953125 C42.70034058 23.06517792 42.68193115 23.93504333 42.66296387 24.83126831 C42.58469473 28.53338998 42.51651749 32.23567971 42.44775391 35.93798828 C42.39594186 38.64885163 42.33874547 41.35956469 42.28125 44.0703125 C42.26767456 44.9057962 42.25409912 45.74127991 42.2401123 46.6020813 C42.21503601 47.77382401 42.21503601 47.77382401 42.18945312 48.96923828 C42.17066101 49.99466232 42.17066101 49.99466232 42.15148926 51.040802 C41.99086567 53.11813359 41.55954938 54.9962773 41 57 C42.32 57.33 43.64 57.66 45 58 C44.67 59.32 44.34 60.64 44 62 C38.48050766 61.48254759 33.11818734 58.49887376 29.53833008 54.27563477 C27.7681857 51.65707966 26.67524469 49.08244102 25.51953125 46.140625 C25.07802734 45.02558594 24.63652344 43.91054687 24.18164062 42.76171875 C23.72982422 41.60285156 23.27800781 40.44398437 22.8125 39.25 C22.34908203 38.07566406 21.88566406 36.90132812 21.40820312 35.69140625 C20.26666495 32.79637128 19.13082728 29.89923178 18 27 C17.78275788 31.07433604 17.58594199 35.14909681 17.40795898 39.2253418 C17.34455307 40.61167719 17.27558284 41.99776978 17.20092773 43.38354492 C17.09455545 45.37606194 17.00987774 47.36969982 16.92578125 49.36328125 C16.86817627 50.56251221 16.81057129 51.76174316 16.7512207 52.99731445 C16.72324594 56.00964312 16.72324594 56.00964312 18.50463867 57.91479492 C19.24484253 58.45197144 19.24484253 58.45197144 20 59 C19.67 59.99 19.34 60.98 19 62 C13.54071596 61.5905537 8.90911756 59.877679 5 56 C3.94719016 52.7203416 4.17555923 49.65471023 4.40234375 46.24609375 C4.4334877 45.30822525 4.46463165 44.37035675 4.49671936 43.40406799 C4.60564304 40.4122695 4.77126485 37.42660522 4.9375 34.4375 C5.0173034 32.4226666 5.09351555 30.40768754 5.16601562 28.39257812 C5.31186872 24.70110985 5.46779361 21.01098922 5.66772461 17.32202148 C5.70739853 16.58209457 5.74707245 15.84216766 5.78794861 15.07981873 C6.00256843 12.97480862 6.4357537 11.03674463 7 9 C6.4225 8.938125 5.845 8.87625 5.25 8.8125 C2.03937946 7.65310925 0.81725675 5.82684384 -1 3 C-0.67 2.01 -0.34 1.02 0 0 Z " fill="#FFFFFF" transform="translate(360,39)"/>
<path d="M0 0 C2.24834496 -0.13526139 4.49902514 -0.23210804 6.75 -0.3125 C8.00296875 -0.37050781 9.2559375 -0.42851563 10.546875 -0.48828125 C14 0 14 0 16.01367188 2.07617188 C18.22125919 5.32568831 19.76970344 8.64675401 21.234375 12.26953125 C21.51726379 12.95053391 21.80015259 13.63153656 22.09161377 14.33317566 C22.98545276 16.48986022 23.86786547 18.65100542 24.75 20.8125 C25.35732148 22.28351359 25.96538702 23.75422022 26.57421875 25.22460938 C28.05810833 28.81291337 29.53177497 32.40525975 31 36 C31.02505615 35.2886792 31.0501123 34.5773584 31.07592773 33.84448242 C31.19188439 30.62530483 31.31461245 27.40642015 31.4375 24.1875 C31.47681641 23.06794922 31.51613281 21.94839844 31.55664062 20.79492188 C31.59853516 19.72177734 31.64042969 18.64863281 31.68359375 17.54296875 C31.72025146 16.55321045 31.75690918 15.56345215 31.79467773 14.54370117 C32 12 32 12 33 9 C31.68 9 30.36 9 29 9 C25.77734375 3.7265625 25.77734375 3.7265625 25 2 C25.33 1.34 25.66 0.68 26 0 C38.79413561 -0.92364081 38.79413561 -0.92364081 42.9375 2.25 C43.95745089 5.84982666 43.99281995 7.38297029 43.5703125 10.96875 C42.70750278 20.04994281 42.89353975 29.1377874 42.9375 38.25 C42.94252673 40.07421752 42.94708756 41.89843638 42.95117188 43.72265625 C42.96208061 48.14847132 42.97928006 52.57422043 43 57 C43.99 57.495 43.99 57.495 45 58 C44.67 59.32 44.34 60.64 44 62 C38.24233767 61.05102504 34.16420369 59.14697751 30 55 C27.25874145 50.23882861 25.35021782 45.26261314 23.4375 40.125 C22.90301693 38.75418143 22.36592665 37.38437643 21.82617188 36.015625 C20.52051153 32.68823319 19.25067441 29.34850795 18 26 C17.92581954 30.35990873 17.87138456 34.71948279 17.83520508 39.07983398 C17.82012232 40.56297199 17.79965311 42.04606544 17.77368164 43.52905273 C17.73727384 45.66140745 17.72026927 47.79317235 17.70703125 49.92578125 C17.6913208 51.20880127 17.67561035 52.49182129 17.65942383 53.8137207 C17.71473349 56.98778335 17.71473349 56.98778335 19.51831055 58.94213867 C20.00726807 59.29123291 20.49622559 59.64032715 21 60 C20.67 60.66 20.34 61.32 20 62 C14.24269207 61.53001568 10.9364452 59.96305234 6 57 C5.97503852 51.93205106 5.9570178 46.86413894 5.94506836 41.79614258 C5.94007991 40.07673518 5.93328676 38.35733194 5.92456055 36.63793945 C5.87877508 27.37580797 5.84832944 18.20946928 7 9 C6.06414062 8.80857422 6.06414062 8.80857422 5.109375 8.61328125 C2.24086741 7.77928923 1.46215034 6.5587631 0 4 C0 2.68 0 1.36 0 0 Z " fill="#FFFFFF" transform="translate(407,39)"/>
<path d="M0 0 C3.93794783 3.45505613 6.08076977 5.56161413 6.76342773 10.92919922 C6.78296349 12.46569726 6.77984438 14.00259822 6.7578125 15.5390625 C6.75926773 16.35883575 6.76072296 17.17860901 6.76222229 18.02322388 C6.76056663 19.75298626 6.7490426 21.48276388 6.72827148 23.21240234 C6.69938674 25.84406987 6.70765512 28.47371167 6.72070312 31.10546875 C6.71446266 32.79167636 6.70606931 34.47787765 6.6953125 36.1640625 C6.69824814 36.94345184 6.70118378 37.72284119 6.70420837 38.52584839 C6.59808348 44.75170154 5.4067723 49.58696221 1.13671875 54.359375 C-2.89529941 56.63834178 -6.10810815 57.3945555 -10.73828125 56.984375 C-17.64515801 54.96912947 -23.63809446 52.08456179 -28.73828125 46.984375 C-29.87855837 44.70382075 -29.84567917 43.50988693 -29.80761719 40.98120117 C-29.79720398 40.15661911 -29.78679077 39.33203705 -29.77606201 38.48246765 C-29.75843811 37.58977676 -29.74081421 36.69708588 -29.72265625 35.77734375 C-29.70616028 34.85979813 -29.68966431 33.9422525 -29.67266846 32.99690247 C-29.63513063 31.05248236 -29.59457957 29.10811846 -29.55126953 27.16381836 C-29.48875893 24.19456476 -29.44718305 21.2254782 -29.40625 18.25585938 C-29.36718155 16.36716024 -29.32685768 14.47848658 -29.28515625 12.58984375 C-29.27562927 11.70322556 -29.26610229 10.81660736 -29.25628662 9.90312195 C-29.12420464 5.11803912 -28.81092059 1.88393532 -25.73828125 -2.015625 C-17.70998604 -9.50870053 -7.75106201 -5.64167476 0 0 Z M-17.73828125 6.984375 C-17.90550174 12.52009363 -18.06610067 18.05594877 -18.22045898 23.59204102 C-18.27395785 25.47685976 -18.32929305 27.36162728 -18.38647461 29.24633789 C-18.46816635 31.94926911 -18.54333665 34.65231339 -18.6171875 37.35546875 C-18.6577401 38.62734291 -18.6577401 38.62734291 -18.69911194 39.9249115 C-18.75108651 41.94410606 -18.75016338 43.96454658 -18.73828125 45.984375 C-17.58811871 47.34659807 -17.58811871 47.34659807 -14.48828125 47.296875 C-10.16925454 46.93695611 -8.71793152 46.05166204 -5.73828125 42.984375 C-4.44284099 39.09805421 -4.36876944 35.29269783 -4.17578125 31.234375 C-4.13477295 30.39269775 -4.09376465 29.55102051 -4.05151367 28.68383789 C-3.80441957 23.26464991 -3.61074069 17.84651995 -3.55078125 12.421875 C-3.53660156 11.22433594 -3.52242188 10.02679688 -3.5078125 8.79296875 C-3.4447259 5.8466581 -3.4447259 5.8466581 -5.73828125 3.984375 C-10.64187538 3.42714839 -13.45625361 4.71777098 -17.73828125 6.984375 Z " fill="#FFFFFF" transform="translate(349.73828125,44.015625)"/>
<path d="M0 0 C3.39494112 -0.20402829 6.78830486 -0.32784854 10.1875 -0.4375 C11.14720703 -0.49615234 12.10691406 -0.55480469 13.09570312 -0.61523438 C19.87438287 -0.77942385 19.87438287 -0.77942385 22.68603516 1.16748047 C26.75805742 6.20139776 27.72601317 12.8168929 29 19 C29.24854736 20.13179687 29.49709473 21.26359375 29.75317383 22.4296875 C31.01235373 28.19327363 32.20086201 33.97096443 33.38671875 39.75 C33.60650391 40.80316406 33.82628906 41.85632813 34.05273438 42.94140625 C34.46889539 44.94666209 34.87298644 46.95446919 35.26367188 48.96484375 C35.54114258 50.31255859 35.54114258 50.31255859 35.82421875 51.6875 C35.97979248 52.47511719 36.13536621 53.26273438 36.2956543 54.07421875 C36.92205346 56.37478932 36.92205346 56.37478932 40 58 C39.67 59.32 39.34 60.64 39 62 C34.18476482 61.53022096 29.41116477 60.62717521 26 57 C24.43976827 52.41553056 24 47.82239616 24 43 C22.04096255 43.47627975 20.08278903 43.95611423 18.125 44.4375 C17.03445312 44.70433594 15.94390625 44.97117188 14.8203125 45.24609375 C12.07515279 45.8786478 12.07515279 45.8786478 10 47 C9.08719862 49.57437581 9.08719862 49.57437581 8.375 52.5625 C8.11460937 53.57441406 7.85421875 54.58632812 7.5859375 55.62890625 C7.39257812 56.41136719 7.19921875 57.19382813 7 58 C7.99 58.33 8.98 58.66 10 59 C9.67 59.99 9.34 60.98 9 62 C4.02693484 61.50269348 0.36200187 60.44697666 -4 58 C-3.37988999 51.87911314 -2.12687554 46.17562605 -0.49609375 40.25 C-0.2533522 39.35128174 -0.01061066 38.45256348 0.23948669 37.52661133 C1.00877272 34.68300905 1.78550716 31.84150497 2.5625 29 C3.08838591 27.0613322 3.61378149 25.12253132 4.13867188 23.18359375 C5.42011634 18.4541714 6.70824051 13.72661491 8 9 C6.35 9 4.7 9 3 9 C-0.22265625 3.7265625 -0.22265625 3.7265625 -1 2 C-0.67 1.34 -0.34 0.68 0 0 Z M18 12 C16.02 19.59 14.04 27.18 12 35 C15.63 35.33 19.26 35.66 23 36 C21.90863407 27.94246854 20.72168056 19.9490358 19 12 C18.67 12 18.34 12 18 12 Z " fill="#FFFFFF" transform="translate(142,39)"/>
<path d="M0 0 C6.125 8.28676471 6.125 8.28676471 6.125 12.875 C4.5 13.6875 4.5 13.6875 2.125 13.875 C0.68832825 12.6015864 -0.74679004 11.32621976 -2.1640625 10.03125 C-5.35947683 7.87179192 -8.12557991 8.45167838 -11.875 8.875 C-14.90912354 9.75329892 -15.58886054 10.35994896 -17.125 13.125 C-17.95092799 16.15340261 -18.02034994 18.7499763 -17.875 21.875 C-17.318125 21.6584375 -16.76125 21.441875 -16.1875 21.21875 C-10.85539465 19.2732521 -6.54393781 18.02465933 -0.875 18.875 C5.34779391 23.99151943 6.68590976 31.70364271 7.5 39.4375 C6.8541256 45.35801535 5.97991442 51.64424868 1.5 55.9375 C-3.34829876 58.72078262 -7.49741021 59.46561679 -13.01953125 58.5 C-18.49653304 56.8244354 -21.8658301 53.68254955 -24.875 48.875 C-28.875 40.57686335 -28.875 40.57686335 -28.875 36.875 C-26.4 36.38 -26.4 36.38 -23.875 35.875 C-22.8984375 37.6328125 -21.921875 39.390625 -20.9453125 41.1484375 C-19.86602726 43.0362614 -19.86602726 43.0362614 -17.875 44.875 C-13.00970389 45.61555835 -9.04359043 45.59046353 -4.8125 43 C-1.45422086 39.31672611 -1.78431323 36.77208562 -1.875 31.875 C-2.80441406 32.08898437 -3.73382813 32.30296875 -4.69140625 32.5234375 C-14.40644168 34.40768838 -14.40644168 34.40768838 -18.22265625 33.0234375 C-23.81841849 28.62061798 -26.33625731 21.91834718 -27.25390625 15.03125 C-27.5197924 8.78721398 -26.7042628 4.84269228 -22.875 -0.125 C-15.95585781 -5.44741707 -6.94966835 -5.13671139 0 0 Z " fill="#FFFFFF" transform="translate(209.875,42.125)"/>
<path d="M0 0 C4.46560056 -0.14876435 8.92987491 -0.25740399 13.3972168 -0.32958984 C14.91537611 -0.35969086 16.43336251 -0.40058346 17.95092773 -0.45263672 C20.13829199 -0.52576394 22.3233517 -0.55951745 24.51171875 -0.5859375 C26.48338013 -0.63306885 26.48338013 -0.63306885 28.49487305 -0.68115234 C32.11407591 0.0221684 32.69279842 0.28162158 34.96801758 2.89599609 C37 6 37 6 37 8.25 C36 10 36 10 33 12 C31.68 12 30.36 12 29 12 C29 11.34 29 10.68 29 10 C23.555 9.505 23.555 9.505 18 9 C17.34 14.28 16.68 19.56 16 25 C19.09375 24.814375 19.09375 24.814375 22.25 24.625 C28.59350608 24.61117973 28.59350608 24.61117973 31.875 27.75 C33 31 33 31 32 35 C26.72 35 21.44 35 16 35 C16 40.28 16 45.56 16 51 C21.94 50.67 27.88 50.34 34 50 C38 57 38 57 37.75 59.4375 C37.5025 59.953125 37.255 60.46875 37 61 C29.74199931 61.2237055 22.64066068 60.99886411 15.4375 60.125 C14.75945312 60.04652832 14.08140625 59.96805664 13.3828125 59.88720703 C9.8470687 59.42575349 7.12374593 58.68040702 4 57 C4.06638672 56.17717529 4.13277344 55.35435059 4.20117188 54.5065918 C4.96178248 44.57215678 5.30574783 34.65974313 5.55224609 24.7019043 C5.60389374 22.66182226 5.66103092 20.62194917 5.71875 18.58203125 C5.76418945 16.79116089 5.76418945 16.79116089 5.81054688 14.96411133 C6 12 6 12 7 9 C6.13375 8.938125 6.13375 8.938125 5.25 8.875 C1.86687535 7.55934042 0.80777315 5.03447636 -1 2 C-0.67 1.34 -0.34 0.68 0 0 Z " fill="#FFFFFF" transform="translate(455,39)"/>
<path d="M0 0 C2.06445424 1.48886291 3.95877946 3.06547032 5.8515625 4.765625 C7.0890625 5.8175 7.0890625 5.8175 8.3515625 6.890625 C10.79624843 11.57627304 10.3184345 16.58411113 9.8515625 21.765625 C9.5215625 22.425625 9.1915625 23.085625 8.8515625 23.765625 C5.5515625 23.105625 2.2515625 22.445625 -1.1484375 21.765625 C-1.1484375 17.475625 -1.1484375 13.185625 -1.1484375 8.765625 C-4.54924327 8.86970417 -4.54924327 8.86970417 -8.1484375 9.765625 C-11.55855647 13.83219066 -11.54764962 17.83414176 -11.44140625 22.91015625 C-11.43716141 23.67994308 -11.43291656 24.44972992 -11.42854309 25.24284363 C-11.41182347 27.68830146 -11.3741852 30.13291857 -11.3359375 32.578125 C-11.32088191 34.24152451 -11.30719504 35.90493701 -11.29492188 37.56835938 C-11.26194215 41.63443582 -11.21020756 45.69988813 -11.1484375 49.765625 C-5.80868845 49.98249424 -5.80868845 49.98249424 -1.1484375 47.765625 C1.09563504 44.73360575 1.09563504 44.73360575 2.8515625 41.765625 C6.44547364 43.10050628 9.60646946 44.72585223 12.8515625 46.765625 C10.73301014 52.16793352 8.77660503 56.92702684 3.6640625 60.140625 C-4.11555931 61.86942985 -9.91470796 59.22438516 -16.66796875 55.43359375 C-19.33130461 53.64265767 -21.1692639 52.30953999 -23.1484375 49.765625 C-23.52262805 46.89770826 -23.66323475 44.42427555 -23.609375 41.5625 C-23.60845856 40.76587952 -23.60754211 39.96925903 -23.6065979 39.14849854 C-23.60056378 37.46401001 -23.58482324 35.77953213 -23.56005859 34.09521484 C-23.52375978 31.53832671 -23.51903807 28.98289915 -23.51953125 26.42578125 C-23.50969076 24.78384184 -23.49802971 23.14191212 -23.484375 21.5 C-23.48214935 20.74450867 -23.47992371 19.98901733 -23.47763062 19.21063232 C-23.3674548 12.93104588 -22.87977071 6.9778841 -18.8984375 1.890625 C-13.07995405 -2.60547585 -6.52508462 -3.74895771 0 0 Z " fill="#FFFFFF" transform="translate(520.1484375,40.234375)"/>
<path d="M0 0 C0.94875 0.763125 1.8975 1.52625 2.875 2.3125 C3.70064453 2.94671875 3.70064453 2.94671875 4.54296875 3.59375 C7.79300159 6.37287547 9.26384099 8.53438693 9.875 12.8125 C10.07780179 16.67881804 9.43474953 19.73425109 7.875 23.3125 C4.575 22.6525 1.275 21.9925 -2.125 21.3125 C-2.125 17.0225 -2.125 12.7325 -2.125 8.3125 C-7.14035052 8.64210216 -7.14035052 8.64210216 -11.125 11.3125 C-12.56022988 15.10580973 -12.25118 19.1446282 -12.22265625 23.140625 C-12.22053383 24.26413361 -12.22053383 24.26413361 -12.21836853 25.41033936 C-12.21278659 27.79443412 -12.20023745 30.17843378 -12.1875 32.5625 C-12.18248266 34.18229031 -12.17792016 35.80208209 -12.17382812 37.421875 C-12.16282308 41.38545312 -12.14557091 45.34896045 -12.125 49.3125 C-6.22196648 49.21226306 -6.22196648 49.21226306 -1.15234375 46.68359375 C-0.79269531 46.04550781 -0.43304688 45.40742187 -0.0625 44.75 C0.576875 43.615625 1.21625 42.48125 1.875 41.3125 C5.46891114 42.64738128 8.62990696 44.27272723 11.875 46.3125 C10.34964901 52.13656742 7.76589046 56.51545999 2.5625 59.75 C-5.86578455 61.51405956 -13.06417481 57.61960336 -20.125 53.3125 C-22.53442853 51.61151783 -23.9459152 50.34811805 -24.46051025 47.37229919 C-24.55923611 44.88514526 -24.52230034 42.43304564 -24.4375 39.9453125 C-24.41913086 39.03296844 -24.40076172 38.12062439 -24.38183594 37.18063354 C-24.33766201 35.25216534 -24.28321271 33.32390901 -24.21923828 31.39599609 C-24.12556684 28.45529517 -24.07414811 25.51599623 -24.02734375 22.57421875 C-23.97910485 20.69784958 -23.92840401 18.82154176 -23.875 16.9453125 C-23.86122314 16.0701297 -23.84744629 15.1949469 -23.83325195 14.29324341 C-23.61858762 8.84918356 -22.71356456 5.64896323 -19.125 1.3125 C-13.39487602 -3.88042486 -6.61415096 -3.57164152 0 0 Z " fill="#FFFFFF" transform="translate(304.125,40.6875)"/>
<path d="M0 0 C4.3231808 -0.14879892 8.64499003 -0.25741862 12.9699707 -0.32958984 C14.43963596 -0.35968538 15.90912271 -0.40057406 17.37817383 -0.45263672 C19.49605341 -0.5257907 21.61155245 -0.55952214 23.73046875 -0.5859375 C25.00301514 -0.6173584 26.27556152 -0.6487793 27.58666992 -0.68115234 C32.30667629 0.2607558 33.31700103 2.11334986 36 6 C34.84826645 8.46800047 33.95216435 10.04783565 32 12 C29.9375 11.75 29.9375 11.75 27 11 C25.39663914 10.64220303 23.79241505 10.28825974 22.1875 9.9375 C20.805625 9.628125 19.42375 9.31875 18 9 C17.34 14.94 16.68 20.88 16 27 C19.54817708 26.83723958 23.09635417 26.67447917 26.64453125 26.51171875 C30 27 30 27 31.94921875 29.26953125 C33 32 33 32 33 36 C27.39 36 21.78 36 16 36 C16.08679183 39.43875207 16.19365053 42.87483525 16.3125 46.3125 C16.33505859 47.28896484 16.35761719 48.26542969 16.38085938 49.27148438 C16.4340332 50.67817383 16.4340332 50.67817383 16.48828125 52.11328125 C16.51446533 52.97735596 16.54064941 53.84143066 16.56762695 54.73168945 C17.07665372 57.40213987 17.92329908 58.31011183 20 60 C19.67 60.66 19.34 61.32 19 62 C15.15743043 61.61574304 12.18029187 60.70882845 8.78125 58.953125 C8.07033203 58.58864258 7.35941406 58.22416016 6.62695312 57.84863281 C6.09005859 57.56858398 5.55316406 57.28853516 5 57 C4.97501786 52.21688199 4.95700837 47.43380315 4.94506836 42.65063477 C4.94008328 41.02823219 4.9332928 39.405834 4.92456055 37.78344727 C4.79677487 13.40645026 4.79677487 13.40645026 7 9 C6.4225 8.938125 5.845 8.87625 5.25 8.8125 C2.03937946 7.65310925 0.81725675 5.82684384 -1 3 C-0.67 2.01 -0.34 1.02 0 0 Z " fill="#FFFFFF" transform="translate(103,39)"/>
<path d="M0 0 C5.05358014 -0.14845558 10.10588883 -0.25726186 15.16113281 -0.32958984 C16.88010771 -0.35974161 18.59892902 -0.4006713 20.31738281 -0.45263672 C22.79009864 -0.52553181 25.26077994 -0.55946901 27.734375 -0.5859375 C28.88459137 -0.63238907 28.88459137 -0.63238907 30.05804443 -0.67977905 C32.24121094 -0.68115234 32.24121094 -0.68115234 36 0 C38.7692651 3.13516916 40 4.7900794 40 9 C38.25 10.75 38.25 10.75 36 12 C34.125 11.8125 34.125 11.8125 32 11 C30.02 10.34 28.04 9.68 26 9 C25.67 24.84 25.34 40.68 25 57 C26.32 57.66 27.64 58.32 29 59 C28.67 59.99 28.34 60.98 28 62 C22.55295667 61.59147175 17.83907128 59.95479824 14 56 C12.94456787 52.38702133 13.20247318 48.95977709 13.4375 45.23046875 C13.47101563 44.19432938 13.50453125 43.15819 13.5390625 42.09065247 C13.65467672 38.78684856 13.82654225 35.48872285 14 32.1875 C14.08835467 29.94610706 14.17303371 27.704566 14.25390625 25.46289062 C14.4600113 19.97282957 14.71231896 14.48635852 15 9 C13.89164795 9.4964502 12.7832959 9.99290039 11.64135742 10.50439453 C8 12 8 12 5.73828125 11.9296875 C3.4367971 10.69878137 2.53546385 9.34852949 1.1875 7.125 C0.74792969 6.42632812 0.30835938 5.72765625 -0.14453125 5.0078125 C-1 3 -1 3 0 0 Z " fill="#FFFFFF" transform="translate(217,39)"/>
<path d="M0 0 C5.03522205 -0.17341806 10.06869717 -0.30023396 15.10620117 -0.38452148 C16.81842329 -0.41966309 18.53043624 -0.46738907 20.24194336 -0.52807617 C22.70739295 -0.61328921 25.17006235 -0.65274545 27.63671875 -0.68359375 C28.39836838 -0.71972275 29.16001801 -0.75585175 29.94474792 -0.79307556 C33.07799033 -0.79537521 35.34130374 -0.6486564 37.62979126 1.60494995 C39.02270508 3.54272461 39.02270508 3.54272461 41 7 C38.75 9.5625 38.75 9.5625 36 12 C34 11.875 34 11.875 32 11 C30.33480481 10.65939189 28.66842534 10.32441604 27 10 C25.76771903 14.86334376 25.77690361 19.69054946 25.68359375 24.67578125 C25.66281265 25.6009404 25.64203156 26.52609955 25.62062073 27.47929382 C25.5554344 30.42362307 25.49638442 33.36803865 25.4375 36.3125 C25.39428536 38.31315983 25.35067014 40.31381106 25.30664062 42.31445312 C25.1997848 47.20954779 25.09843081 52.10472897 25 57 C26.32 57.66 27.64 58.32 29 59 C28.67 59.99 28.34 60.98 28 62 C22.55104641 61.59132848 17.85312065 59.93879635 14 56 C12.94738357 52.45832773 13.20171573 49.10889355 13.4375 45.44921875 C13.47101562 44.43527542 13.50453125 43.42133209 13.5390625 42.37666321 C13.65466318 39.14412617 13.82652785 35.91739767 14 32.6875 C14.08835639 30.49428737 14.17303531 28.30092328 14.25390625 26.10742188 C14.45999393 20.73579534 14.71229451 15.36784031 15 10 C14.23300781 10.15339844 13.46601562 10.30679688 12.67578125 10.46484375 C10.1171875 10.9765625 7.55859375 11.48828125 5 12 C3.96674014 10.57140593 2.94872366 9.13177617 1.9375 7.6875 C1.36902344 6.88699219 0.80054688 6.08648437 0.21484375 5.26171875 C-0.18605469 4.51535156 -0.58695313 3.76898438 -1 3 C-0.67 2.01 -0.34 1.02 0 0 Z " fill="#FFFFFF" transform="translate(531,39)"/>
<path d="M0 0 C0.33 0.66 0.66 1.32 1 2 C1.721875 1.319375 2.44375 0.63875 3.1875 -0.0625 C6 -2 6 -2 8.6875 -1.875 C11 -1 11 -1 13 1 C13.375 4.4375 13.375 4.4375 13 8 C11.3125 10 11.3125 10 9 11 C5.62963689 10.75925978 4.41201979 10.41201979 2 8 C2 7.01 2 6.02 2 5 C1.34 5 0.68 5 0 5 C-0.33 6.65 -0.66 8.3 -1 10 C-3.65997891 10.73888303 -5.53464544 11.10341212 -8.25 10.5 C-10 9 -10 9 -10.875 5.5625 C-11 2 -11 2 -9 -1 C-5.20980534 -2.26339822 -3.62477616 -1.49719015 0 0 Z M-7 1 C-7.33 1.66 -7.66 2.32 -8 3 C-6.02 3 -4.04 3 -2 3 C-2.33 2.34 -2.66 1.68 -3 1 C-4.32 1 -5.64 1 -7 1 Z M5 1 C5 1.66 5 2.32 5 3 C6.65 3 8.3 3 10 3 C9.67 2.34 9.34 1.68 9 1 C7.68 1 6.36 1 5 1 Z M-8 6 C-7.67 6.66 -7.34 7.32 -7 8 C-5.35 7.67 -3.7 7.34 -2 7 C-2 6.67 -2 6.34 -2 6 C-3.98 6 -5.96 6 -8 6 Z M5 6 C5 6.66 5 7.32 5 8 C6.65 7.67 8.3 7.34 10 7 C10 6.67 10 6.34 10 6 C8.35 6 6.7 6 5 6 Z " fill="#FFFFFF" transform="translate(417,116)"/>
<path d="M0 0 C2.91821463 -0.13510253 5.83017652 -0.2341305 8.75 -0.3125 C9.9875 -0.3753418 9.9875 -0.3753418 11.25 -0.43945312 C17.36083882 -0.56265552 17.36083882 -0.56265552 20.578125 2.26953125 C22 5 22 5 22 9 C18.91738544 9.1746397 15.83604167 9.28094067 12.75 9.375 C11.87730469 9.42527344 11.00460937 9.47554687 10.10546875 9.52734375 C7.60526182 9.5846004 5.43958827 9.55752363 3 9 C0.328125 6.1640625 0.328125 6.1640625 -1 3 C-0.67 2.01 -0.34 1.02 0 0 Z " fill="#FFFFFF" transform="translate(253,69)"/>
<path d="M0 0 C0.845625 -0.226875 1.69125 -0.45375 2.5625 -0.6875 C5 -1 5 -1 7.3125 0.4375 C9.73632831 4.11812818 9.29025695 6.64614582 9 11 C8.01 11 7.02 11 6 11 C5.67 8.36 5.34 5.72 5 3 C4.01 3 3.02 3 2 3 C1.67 5.64 1.34 8.28 1 11 C0.01 11 -0.98 11 -2 11 C-2.33 8.36 -2.66 5.72 -3 3 C-3.99 3 -4.98 3 -6 3 C-6.33 5.64 -6.66 8.28 -7 11 C-7.99 11 -8.98 11 -10 11 C-10 7.37 -10 3.74 -10 0 C-5.42871882 -0.91425624 -4.19549375 -0.83909875 0 0 Z " fill="#FFFFFF" transform="translate(226,115)"/>
<path d="M0 0 C0.66 0 1.32 0 2 0 C2 0.99 2 1.98 2 3 C3.98 3 5.96 3 8 3 C8.66 4.98 9.32 6.96 10 9 C10.66 9 11.32 9 12 9 C12.66 7.02 13.32 5.04 14 3 C14.99 3.33 15.98 3.66 17 4 C14.69 9.28 12.38 14.56 10 20 C9.34 20 8.68 20 8 20 C8.061875 18.824375 8.12375 17.64875 8.1875 16.4375 C8.21144173 11.96039699 6.9879056 8.9758112 5 5 C4.01 5 3.02 5 2 5 C2 7.31 2 9.62 2 12 C2.99 12 3.98 12 5 12 C5 12.66 5 13.32 5 14 C3.35 14 1.7 14 0 14 C0 11.03 0 8.06 0 5 C-0.66 5 -1.32 5 -2 5 C-2 4.34 -2 3.68 -2 3 C-1.34 3 -0.68 3 0 3 C0 2.01 0 1.02 0 0 Z " fill="#FFFFFF" transform="translate(558,112)"/>
<path d="M0 0 C0.08076963 2.45898655 0.14037143 4.91533742 0.1875 7.375 C0.22520508 8.42300781 0.22520508 8.42300781 0.26367188 9.4921875 C0.29296875 11.5234375 0.29296875 11.5234375 0 15 C-3.23253796 17.15502531 -4.25150923 17.46856135 -8 17 C-9.8125 15.625 -9.8125 15.625 -11 14 C-11 13.34 -11 12.68 -11 12 C-8.36 12.33 -5.72 12.66 -3 13 C-2.67 12.34 -2.34 11.68 -2 11 C-3.11375 11.3403125 -3.11375 11.3403125 -4.25 11.6875 C-7 12 -7 12 -9.3125 11 C-11 9 -11 9 -11.5 5.5 C-11 2 -11 2 -9.4375 0 C-6.06798889 -1.38236353 -3.53321051 -0.59367831 0 0 Z M-7 2 C-7.66 2.66 -8.32 3.32 -9 4 C-8.6814823 6.10820797 -8.6814823 6.10820797 -8 8 C-6.10820797 8.6814823 -6.10820797 8.6814823 -4 9 C-3.34 8.34 -2.68 7.68 -2 7 C-2.3185177 4.89179203 -2.3185177 4.89179203 -3 3 C-4.89179203 2.3185177 -4.89179203 2.3185177 -7 2 Z " fill="#FFFFFF" transform="translate(355,115)"/>
<path d="M0 0 C2 2 2 2 2.375 5.4375 C2 9 2 9 0.3125 11 C-2.55639535 12.2406034 -4.05641676 11.89942821 -7 11 C-7 12.98 -7 14.96 -7 17 C-7.99 17 -8.98 17 -10 17 C-10 11.39 -10 5.78 -10 0 C-5.66955459 -0.86608908 -3.99392372 -1.18738273 0 0 Z M-6 2 C-7.00217064 5.58327753 -7.00217064 5.58327753 -6 9 C-4.35 8.67 -2.7 8.34 -1 8 C-0.67 7.01 -0.34 6.02 0 5 C-0.66 4.01 -1.32 3.02 -2 2 C-3.32 2 -4.64 2 -6 2 Z " fill="#FFFFFF" transform="translate(403,115)"/>
<path d="M0 0 C0.99 0 1.98 0 3 0 C3 4.95 3 9.9 3 15 C-4.2 16.32 -4.2 16.32 -7.5 15 C-9.79987517 11.93349977 -9.53037595 9.71263162 -9 6 C-7.3125 4 -7.3125 4 -5 3 C-2.25 3.3125 -2.25 3.3125 0 4 C0 2.68 0 1.36 0 0 Z M-5 6 C-6.29633621 7.06645115 -6.29633621 7.06645115 -6.0625 9.5625 C-6.041875 10.366875 -6.02125 11.17125 -6 12 C-4.34385343 12.38218767 -2.67542976 12.71395102 -1 13 C0.29633621 11.93354885 0.29633621 11.93354885 0.0625 9.4375 C0.041875 8.633125 0.02125 7.82875 0 7 C-1.65614657 6.61781233 -3.32457024 6.28604898 -5 6 Z " fill="#FFFFFF" transform="translate(440,111)"/>
<path d="M0 0 C0.99 0 1.98 0 3 0 C3 4.95 3 9.9 3 15 C-4.2 16.32 -4.2 16.32 -7.5 15 C-9.79987517 11.93349977 -9.53037595 9.71263162 -9 6 C-7.3125 4 -7.3125 4 -5 3 C-2.25 3.3125 -2.25 3.3125 0 4 C0 2.68 0 1.36 0 0 Z M-5 6 C-6.29633621 7.06645115 -6.29633621 7.06645115 -6.0625 9.5625 C-6.041875 10.366875 -6.02125 11.17125 -6 12 C-4.34385343 12.38218767 -2.67542976 12.71395102 -1 13 C0.29633621 11.93354885 0.29633621 11.93354885 0.0625 9.4375 C0.041875 8.633125 0.02125 7.82875 0 7 C-1.65614657 6.61781233 -3.32457024 6.28604898 -5 6 Z " fill="#FFFFFF" transform="translate(315,111)"/>
<path d="M0 0 C2 2 2 2 2.375 5.4375 C2 9 2 9 0.3125 11 C-2.60879364 12.26326211 -4.01798647 12.02016252 -7 11 C-9 9 -9 9 -9.375 5.5625 C-9 2 -9 2 -7.3125 0 C-4.39120636 -1.26326211 -2.98201353 -1.02016252 0 0 Z M-5 2 C-5.33 2.66 -5.66 3.32 -6 4 C-4.35 4 -2.7 4 -1 4 C-1.33 3.34 -1.66 2.68 -2 2 C-2.99 2 -3.98 2 -5 2 Z M-6 7 C-6 7.66 -6 8.32 -6 9 C-4.35 8.67 -2.7 8.34 -1 8 C-1 7.67 -1 7.34 -1 7 C-2.65 7 -4.3 7 -6 7 Z " fill="#FFFFFF" transform="translate(513,115)"/>
<path d="M0 0 C2.375 0.875 2.375 0.875 4.375 2.875 C4.71370968 9.19758065 4.71370968 9.19758065 3.375 11.875 C0.07265171 12.82901173 -1.81969629 13.23526745 -5 11.8125 C-6.625 9.875 -6.625 9.875 -7.125 6.9375 C-6.625 3.875 -6.625 3.875 -4.9375 1.4375 C-2.625 -0.125 -2.625 -0.125 0 0 Z M-2.625 2.875 C-2.955 3.535 -3.285 4.195 -3.625 4.875 C-1.975 4.875 -0.325 4.875 1.375 4.875 C1.375 4.215 1.375 3.555 1.375 2.875 C0.055 2.875 -1.265 2.875 -2.625 2.875 Z M-3.625 7.875 C-3.295 8.535 -2.965 9.195 -2.625 9.875 C-1.305 9.875 0.015 9.875 1.375 9.875 C1.375 9.215 1.375 8.555 1.375 7.875 C-0.275 7.875 -1.925 7.875 -3.625 7.875 Z " fill="#FFFFFF" transform="translate(247.625,114.125)"/>
<path d="M0 0 C2 2 2 2 2.375 5.4375 C2 9 2 9 0.3125 11 C-2.60879364 12.26326211 -4.01798647 12.02016252 -7 11 C-9 9 -9 9 -9.375 5.5625 C-9 2 -9 2 -7.3125 0 C-4.39120636 -1.26326211 -2.98201353 -1.02016252 0 0 Z M-6 2 C-6 2.66 -6 3.32 -6 4 C-4.35 4 -2.7 4 -1 4 C-1.33 3.34 -1.66 2.68 -2 2 C-3.32 2 -4.64 2 -6 2 Z M-6 7 C-6 7.66 -6 8.32 -6 9 C-4.35 8.67 -2.7 8.34 -1 8 C-1 7.67 -1 7.34 -1 7 C-2.65 7 -4.3 7 -6 7 Z " fill="#FFFFFF" transform="translate(199,115)"/>
<path d="M0 0 C0.99 0 1.98 0 3 0 C3 1.98 3 3.96 3 6 C4.98 6 6.96 6 9 6 C9 4.02 9 2.04 9 0 C9.99 0 10.98 0 12 0 C12 4.62 12 9.24 12 14 C11.01 14 10.02 14 9 14 C9 12.02 9 10.04 9 8 C7.02 8 5.04 8 3 8 C3 9.98 3 11.96 3 14 C2.01 14 1.02 14 0 14 C0 9.38 0 4.76 0 0 Z " fill="#FFFFFF" transform="translate(325,112)"/>
<path d="M0 0 C0.33 1.32 0.66 2.64 1 4 C0.443125 3.855625 -0.11375 3.71125 -0.6875 3.5625 C-3.12167759 2.97040275 -5.52635065 2.40113233 -8 2 C-9.35618499 3.12534105 -9.35618499 3.12534105 -9.0625 6.0625 C-9.041875 7.031875 -9.02125 8.00125 -9 9 C-5.30458414 9.95024979 -2.69541586 9.95024979 1 9 C0.67 9.99 0.34 10.98 0 12 C-3.25 13.375 -3.25 13.375 -7 14 C-9.44253321 12.88493049 -11.11356555 11.88643445 -13 10 C-13.47124825 2.69565217 -13.47124825 2.69565217 -11.6875 0.0625 C-7.33434143 -2.67837762 -4.65790646 -1.49404547 0 0 Z " fill="#FFFFFF" transform="translate(463,113)"/>
<path d="M0 0 C0 3.63 0 7.26 0 11 C-7.2 12.32 -7.2 12.32 -10.5 11 C-12.79987517 7.93349977 -12.53037595 5.71263162 -12 2 C-8.76924464 -2.30767382 -4.72645809 -0.86651732 0 0 Z M-8 2 C-8.66 2.66 -9.32 3.32 -10 4 C-9.6814823 6.10820797 -9.6814823 6.10820797 -9 8 C-7.10820797 8.6814823 -7.10820797 8.6814823 -5 9 C-4.34 8.34 -3.68 7.68 -3 7 C-3.3185177 4.89179203 -3.3185177 4.89179203 -4 3 C-5.89179203 2.3185177 -5.89179203 2.3185177 -8 2 Z " fill="#FFFFFF" transform="translate(292,115)"/>
<path d="M0 0 C0 3.63 0 7.26 0 11 C-7.2 12.32 -7.2 12.32 -10.5 11 C-12.79987517 7.93349977 -12.53037595 5.71263162 -12 2 C-8.76924464 -2.30767382 -4.72645809 -0.86651732 0 0 Z M-8 2 C-9.29633621 3.06645115 -9.29633621 3.06645115 -9.0625 5.5625 C-9.041875 6.366875 -9.02125 7.17125 -9 8 C-7.34385343 8.38218767 -5.67542976 8.71395102 -4 9 C-2.70366379 7.93354885 -2.70366379 7.93354885 -2.9375 5.4375 C-2.958125 4.633125 -2.97875 3.82875 -3 3 C-4.65614657 2.61781233 -6.32457024 2.28604898 -8 2 Z " fill="#FFFFFF" transform="translate(147,115)"/>
<path d="M0 0 C0 3.63 0 7.26 0 11 C-7.23287671 12.3260274 -7.23287671 12.3260274 -10.5 10.9375 C-12 9 -12 9 -12.5 6.0625 C-12 3 -12 3 -10.5 0.5625 C-6.73872372 -1.78829768 -4.27972524 -0.85594505 0 0 Z M-8 2 C-9.29633621 3.06645115 -9.29633621 3.06645115 -9.0625 5.5625 C-9.041875 6.366875 -9.02125 7.17125 -9 8 C-7.34385343 8.38218767 -5.67542976 8.71395102 -4 9 C-2.70366379 7.93354885 -2.70366379 7.93354885 -2.9375 5.4375 C-2.958125 4.633125 -2.97875 3.82875 -3 3 C-4.65614657 2.61781233 -6.32457024 2.28604898 -8 2 Z " fill="#FFFFFF" transform="translate(214,115)"/>
<path d="M0 0 C3.1875 0.875 3.1875 0.875 6 2 C6 2.99 6 3.98 6 5 C5.01 5 4.02 5 3 5 C3 4.34 3 3.68 3 3 C1.68 3 0.36 3 -1 3 C-1 3.99 -1 4.98 -1 6 C1.31 6.66 3.62 7.32 6 8 C6.1875 10.875 6.1875 10.875 6 14 C3 16 3 16 0.4375 15.875 C-2 15 -2 15 -3.3125 12.9375 C-3.539375 12.298125 -3.76625 11.65875 -4 11 C-1.69 11.33 0.62 11.66 3 12 C1.49336217 8.98672434 -1.03166411 8.38943382 -4 7 C-3.6875 4.625 -3.6875 4.625 -3 2 C-2.01 1.34 -1.02 0.68 0 0 Z " fill="#FFFFFF" transform="translate(385,111)"/>
<path d="M0 0 C3.1875 0.875 3.1875 0.875 6 2 C6 2.99 6 3.98 6 5 C5.01 5 4.02 5 3 5 C3 4.34 3 3.68 3 3 C1.68 3 0.36 3 -1 3 C-1 3.99 -1 4.98 -1 6 C1.31 6.66 3.62 7.32 6 8 C6.1875 10.875 6.1875 10.875 6 14 C3 16 3 16 0.4375 15.875 C-2 15 -2 15 -3.3125 12.9375 C-3.539375 12.298125 -3.76625 11.65875 -4 11 C-1.69 11.33 0.62 11.66 3 12 C1.49336217 8.98672434 -1.03166411 8.38943382 -4 7 C-3.6875 4.625 -3.6875 4.625 -3 2 C-2.01 1.34 -1.02 0.68 0 0 Z " fill="#FFFFFF" transform="translate(182,111)"/>
<path d="M0 0 C1 1 1 1 1.3125 3.8125 C1 7 1 7 -0.625 9.4375 C-3 11 -3 11 -6.125 10.9375 C-9 10 -9 10 -11 7 C-10.875 3.4375 -10.875 3.4375 -10 0 C-6.66431467 -3.08859753 -3.86115344 -1.63026478 0 0 Z M-7 1 C-8.29633621 2.06645115 -8.29633621 2.06645115 -8.0625 4.5625 C-8.041875 5.366875 -8.02125 6.17125 -8 7 C-6.34385343 7.38218767 -4.67542976 7.71395102 -3 8 C-1.70366379 6.93354885 -1.70366379 6.93354885 -1.9375 4.4375 C-1.958125 3.633125 -1.97875 2.82875 -2 2 C-3.65614657 1.61781233 -5.32457024 1.28604898 -7 1 Z " fill="#FFFFFF" transform="translate(476,116)"/>
<path d="M0 0 C0.763125 0.20625 1.52625 0.4125 2.3125 0.625 C3.40572542 4.72459531 3.18755695 7.46847947 2.3125 11.625 C0 12.25 0 12.25 -2.6875 12.625 C-3.6775 11.965 -4.6675 11.305 -5.6875 10.625 C-5.501875 10.068125 -5.31625 9.51125 -5.125 8.9375 C-4.61198835 6.225867 -5.0234276 4.28128961 -5.6875 1.625 C-2.6875 -0.375 -2.6875 -0.375 0 0 Z M-2.6875 2.625 C-2.6875 3.285 -2.6875 3.945 -2.6875 4.625 C-1.6975 4.625 -0.7075 4.625 0.3125 4.625 C0.3125 3.965 0.3125 3.305 0.3125 2.625 C-0.6775 2.625 -1.6675 2.625 -2.6875 2.625 Z M-2.6875 7.625 C-2.6875 8.285 -2.6875 8.945 -2.6875 9.625 C-1.6975 9.625 -0.7075 9.625 0.3125 9.625 C0.3125 8.965 0.3125 8.305 0.3125 7.625 C-0.6775 7.625 -1.6675 7.625 -2.6875 7.625 Z " fill="#FFFFFF" transform="translate(269.6875,114.375)"/>
<path d="M0 0 C1.20272819 2.40545638 1.10071472 3.94996953 1.0625 6.625 C1.05347656 7.44226563 1.04445313 8.25953125 1.03515625 9.1015625 C1.02355469 9.72804688 1.01195312 10.35453125 1 11 C0.01 11 -0.98 11 -2 11 C-2 8.03 -2 5.06 -2 2 C-3.32 2.33 -4.64 2.66 -6 3 C-6.33 5.64 -6.66 8.28 -7 11 C-7.99 11 -8.98 11 -10 11 C-10 7.37 -10 3.74 -10 0 C-3.95604396 -1.20879121 -3.95604396 -1.20879121 0 0 Z " fill="#FFFFFF" transform="translate(501,115)"/>
<path d="M0 0 C1 1 1 1 1.09765625 3.06640625 C1.08605469 3.89011719 1.07445312 4.71382813 1.0625 5.5625 C1.05347656 6.38878906 1.04445312 7.21507813 1.03515625 8.06640625 C1.02355469 8.70449219 1.01195312 9.34257813 1 10 C0.01 10 -0.98 10 -2 10 C-2.33 7.36 -2.66 4.72 -3 2 C-3.99 2 -4.98 2 -6 2 C-6.33 4.64 -6.66 7.28 -7 10 C-7.99 10 -8.98 10 -10 10 C-10 6.37 -10 2.74 -10 -1 C-5.07886834 -1.98422633 -4.16911609 -2.08455804 0 0 Z " fill="#FFFFFF" transform="translate(159,116)"/>
<path d="M0 0 C2.67927341 4.01891012 2.15601248 6.24161923 2 11 C1.01 11 0.02 11 -1 11 C-1.33 8.36 -1.66 5.72 -2 3 C-2.99 3 -3.98 3 -5 3 C-5.33 5.64 -5.66 8.28 -6 11 C-6.99 11 -7.98 11 -9 11 C-9 7.37 -9 3.74 -9 0 C-5.1627935 -0.95930163 -3.64787108 -1.15195929 0 0 Z " fill="#FFFFFF" transform="translate(114,115)"/>
<path d="M0 0 C0.763125 0.20625 1.52625 0.4125 2.3125 0.625 C2.6425 1.945 2.9725 3.265 3.3125 4.625 C2.3225 4.625 1.3325 4.625 0.3125 4.625 C0.3125 3.965 0.3125 3.305 0.3125 2.625 C-0.6775 2.625 -1.6675 2.625 -2.6875 2.625 C-2.6875 3.285 -2.6875 3.945 -2.6875 4.625 C-0.7075 5.285 1.2725 5.945 3.3125 6.625 C2.9825 8.275 2.6525 9.925 2.3125 11.625 C0.0625 12.375 0.0625 12.375 -2.6875 12.625 C-5 10.6875 -5 10.6875 -6.6875 8.625 C-2.6875 8.625 -2.6875 8.625 0.3125 9.625 C0.3125 8.965 0.3125 8.305 0.3125 7.625 C-1.3375 7.295 -2.9875 6.965 -4.6875 6.625 C-5.0175 4.975 -5.3475 3.325 -5.6875 1.625 C-2.6875 -0.375 -2.6875 -0.375 0 0 Z " fill="#FFFFFF" transform="translate(259.6875,114.375)"/>
<path d="M0 0 C0 0.99 0 1.98 0 3 C-1.98 2.34 -3.96 1.68 -6 1 C-6 1.66 -6 2.32 -6 3 C-5.21625 3.0825 -4.4325 3.165 -3.625 3.25 C-1 4 -1 4 0.3125 6.0625 C0.539375 6.701875 0.76625 7.34125 1 8 C-0.125 9.5625 -0.125 9.5625 -2 11 C-5.1875 10.6875 -5.1875 10.6875 -8 10 C-8.33 8.68 -8.66 7.36 -9 6 C-8.01 6 -7.02 6 -6 6 C-6 6.66 -6 7.32 -6 8 C-4.68 8 -3.36 8 -2 8 C-2 7.34 -2 6.68 -2 6 C-2.78375 5.9175 -3.5675 5.835 -4.375 5.75 C-7 5 -7 5 -8.375 3.0625 C-9 1 -9 1 -8 -1 C-4.37673261 -2.2077558 -3.35853631 -1.54311128 0 0 Z " fill="#FFFFFF" transform="translate(126,116)"/>
<path d="M0 0 C2.375 1 2.375 1 3.6875 3.0625 C4.0278125 4.0215625 4.0278125 4.0215625 4.375 5 C3.385 5 2.395 5 1.375 5 C1.375 4.34 1.375 3.68 1.375 3 C0.055 3.33 -1.265 3.66 -2.625 4 C-2.625 5.65 -2.625 7.3 -2.625 9 C-1.305 9.33 0.015 9.66 1.375 10 C1.375 9.34 1.375 8.68 1.375 8 C2.365 8 3.355 8 4.375 8 C4.045 9.32 3.715 10.64 3.375 12 C-1.90801887 13.32075472 -1.90801887 13.32075472 -5 11.9375 C-6.625 10 -6.625 10 -7.125 7.0625 C-6.625 4 -6.625 4 -4.9375 1.5625 C-2.625 0 -2.625 0 0 0 Z " fill="#FFFFFF" transform="translate(522.625,114)"/>
<path d="M0 0 C0.99 0 1.98 0 3 0 C3 0.99 3 1.98 3 3 C3.99 3 4.98 3 6 3 C6 3.66 6 4.32 6 5 C5.01 5 4.02 5 3 5 C3 7.31 3 9.62 3 12 C6.465 11.505 6.465 11.505 10 11 C9.34 12.98 8.68 14.96 8 17 C7.34 17 6.68 17 6 17 C6 16.01 6 15.02 6 14 C5.195625 14.020625 4.39125 14.04125 3.5625 14.0625 C1 14 1 14 0 13 C-0.26087055 11.3826026 -0.45964436 9.75493414 -0.625 8.125 C-0.72039062 7.24070312 -0.81578125 6.35640625 -0.9140625 5.4453125 C-1 3 -1 3 0 0 Z " fill="#FFFFFF" transform="translate(162,112)"/>
<path d="M0 0 C0.66 0 1.32 0 2 0 C2 1.32 2 2.64 2 4 C3.1446875 3.690625 3.1446875 3.690625 4.3125 3.375 C7 3 7 3 10 5 C10.29296875 7.3828125 10.29296875 7.3828125 10.1875 10.125 C10.16042969 11.03507812 10.13335937 11.94515625 10.10546875 12.8828125 C10.07066406 13.58148438 10.03585937 14.28015625 10 15 C9.34 15 8.68 15 8 15 C7.67 12.03 7.34 9.06 7 6 C5.68 6 4.36 6 3 6 C2.67 8.97 2.34 11.94 2 15 C1.34 15 0.68 15 0 15 C0 10.05 0 5.1 0 0 Z " fill="#FFFFFF" transform="translate(358,111)"/>
<path d="M0 0 C1 1 1 1 1.09765625 3.28515625 C1.08605469 4.20167969 1.07445312 5.11820312 1.0625 6.0625 C1.05347656 6.98160156 1.04445313 7.90070313 1.03515625 8.84765625 C1.02355469 9.55792969 1.01195312 10.26820312 1 11 C0.34 11 -0.32 11 -1 11 C-1.33 8.03 -1.66 5.06 -2 2 C-3.32 2 -4.64 2 -6 2 C-6.33 4.97 -6.66 7.94 -7 11 C-7.66 11 -8.32 11 -9 11 C-9 7.37 -9 3.74 -9 0 C-5.16046631 -0.95988342 -3.67125527 -0.99223115 0 0 Z " fill="#FFFFFF" transform="translate(488,115)"/>
<path d="M0 0 C1 1 1 1 1.09765625 3.28515625 C1.08605469 4.20167969 1.07445312 5.11820312 1.0625 6.0625 C1.05347656 6.98160156 1.04445313 7.90070313 1.03515625 8.84765625 C1.02355469 9.55792969 1.01195312 10.26820312 1 11 C0.34 11 -0.32 11 -1 11 C-1.33 8.36 -1.66 5.72 -2 3 C-3.32 2.67 -4.64 2.34 -6 2 C-6.33 4.97 -6.66 7.94 -7 11 C-7.66 11 -8.32 11 -9 11 C-9 7.37 -9 3.74 -9 0 C-5.16046631 -0.95988342 -3.67125527 -0.99223115 0 0 Z " fill="#FFFFFF" transform="translate(303,115)"/>
<path d="M0 0 C0.99 0 1.98 0 3 0 C3.66 1.65 4.32 3.3 5 5 C7.2236068 3.0745356 7.2236068 3.0745356 8 0 C8.99 0 9.98 0 11 0 C10.60446947 1.6510403 10.18286103 3.2958515 9.75 4.9375 C9.40195312 6.31228516 9.40195312 6.31228516 9.046875 7.71484375 C8 10 8 10 5.890625 10.81640625 C5.26671875 10.87699219 4.6428125 10.93757813 4 11 C3.32880451 9.5437455 2.66318193 8.08492133 2 6.625 C1.62875 5.81289062 1.2575 5.00078125 0.875 4.1640625 C0 2 0 2 0 0 Z " fill="#FFFFFF" transform="translate(540,115)"/>
<path d="M0 0 C0.99 0 1.98 0 3 0 C3 0.99 3 1.98 3 3 C3.99 3 4.98 3 6 3 C6 3.66 6 4.32 6 5 C5.01 5 4.02 5 3 5 C3 7.31 3 9.62 3 12 C3.99 12 4.98 12 6 12 C6 12.66 6 13.32 6 14 C4.33388095 14.042721 2.66617115 14.04063832 1 14 C-0.63717481 12.36282519 -0.39672144 10.37517442 -0.625 8.125 C-0.72039063 7.24070312 -0.81578125 6.35640625 -0.9140625 5.4453125 C-1 3 -1 3 0 0 Z " fill="#FFFFFF" transform="translate(529,112)"/>
<path d="M0 0 C0.66 0 1.32 0 2 0 C2 0.99 2 1.98 2 3 C2.99 3 3.98 3 5 3 C5 3.66 5 4.32 5 5 C4.01 5 3.02 5 2 5 C2 7.31 2 9.62 2 12 C2.99 12 3.98 12 5 12 C5 12.66 5 13.32 5 14 C3.35 14 1.7 14 0 14 C0 11.03 0 8.06 0 5 C-0.66 5 -1.32 5 -2 5 C-2 4.34 -2 3.68 -2 3 C-1.34 3 -0.68 3 0 3 C0 2.01 0 1.02 0 0 Z " fill="#FFFFFF" transform="translate(129,112)"/>
<path d="M0 0 C0.99 0 1.98 0 3 0 C3 4.62 3 9.24 3 14 C2.01 14 1.02 14 0 14 C0 9.38 0 4.76 0 0 Z " fill="#FFFFFF" transform="translate(100,112)"/>
<path d="M0 0 C0.99 0 1.98 0 3 0 C3 3.63 3 7.26 3 11 C2.01 11 1.02 11 0 11 C0 7.37 0 3.74 0 0 Z " fill="#FFFFFF" transform="translate(552,115)"/>
<path d="M0 0 C0.99 0 1.98 0 3 0 C3 3.63 3 7.26 3 11 C2.01 11 1.02 11 0 11 C0 7.37 0 3.74 0 0 Z " fill="#FFFFFF" transform="translate(536,115)"/>
<path d="M0 0 C0.99 0 1.98 0 3 0 C3 3.63 3 7.26 3 11 C2.01 11 1.02 11 0 11 C0 7.37 0 3.74 0 0 Z " fill="#FFFFFF" transform="translate(339,115)"/>
<path d="M0 0 C0.66 0 1.32 0 2 0 C2 4.95 2 9.9 2 15 C1.34 15 0.68 15 0 15 C0 10.05 0 5.1 0 0 Z " fill="#FFFFFF" transform="translate(237,111)"/>
<path d="M0 0 C2.97 0 5.94 0 9 0 C9 0.99 9 1.98 9 3 C6.03 3 3.06 3 0 3 C0 2.01 0 1.02 0 0 Z " fill="#FFFFFF" transform="translate(370,117)"/>
<path d="M0 0 C0.66 0.33 1.32 0.66 2 1 C2 1.99 2 2.98 2 4 C1.01 3.67 0.02 3.34 -1 3 C-0.67 2.01 -0.34 1.02 0 0 Z " fill="#FFFFFF" transform="translate(553,110)"/>
<path d="M0 0 C0.66 0.33 1.32 0.66 2 1 C2 1.99 2 2.98 2 4 C1.01 3.67 0.02 3.34 -1 3 C-0.67 2.01 -0.34 1.02 0 0 Z " fill="#FFFFFF" transform="translate(340,110)"/>
<path d="M0 0 C0.66 0.33 1.32 0.66 2 1 C1.67 1.99 1.34 2.98 1 4 C0.34 3.67 -0.32 3.34 -1 3 C-0.67 2.01 -0.34 1.02 0 0 Z " fill="#FFFFFF" transform="translate(537,110)"/>
</svg>
