<?xml version="1.0" encoding="UTF-8"?>
<svg version="1.1" xmlns="http://www.w3.org/2000/svg" width="100" height="106">
<path d="M0 0 C1.32 0 2.64 0 4 0 C3.50372318 4.79132712 1.19771508 8.02090287 -1.5625 11.8125 C-1.98724609 12.40998047 -2.41199219 13.00746094 -2.84960938 13.62304688 C-3.89223259 15.08740533 -4.94510452 16.54445735 -6 18 C-2.61328496 21.66038898 1.18600451 24.40850722 5.25 27.25 C5.8996875 27.70890625 6.549375 28.1678125 7.21875 28.640625 C8.81004999 29.76389558 10.40469095 30.88243056 12 32 C15.17391668 28.99764638 17.71252601 25.80246358 20.25 22.25 C21.30960938 20.77273437 21.30960938 20.77273437 22.390625 19.265625 C23.18726562 18.14414062 23.18726562 18.14414062 24 17 C25.98 17.495 25.98 17.495 28 18 C27.44164285 22.13782532 25.01264848 24.89251778 22.5 28.0625 C19.19985938 32.2037357 19.19985938 32.2037357 17 37 C17.53625 37.2475 18.0725 37.495 18.625 37.75 C21.56424252 39.29696975 24.25754408 41.13014369 27 43 C25.40956621 48.08938811 22.2553049 51.87456643 19 56 C17.68 55.67 16.36 55.34 15 55 C14.57589844 55.59167969 14.15179688 56.18335938 13.71484375 56.79296875 C8.65041421 63.61603537 3.60133996 69.18048578 -5 71 C-11.01101799 71.42293091 -16.37828785 71.43101066 -22 69 C-22.24878906 69.54140625 -22.49757813 70.0828125 -22.75390625 70.640625 C-24.27320815 73.51729694 -26.05366165 76.09789238 -27.9375 78.75 C-28.62714844 79.73484375 -29.31679688 80.7196875 -30.02734375 81.734375 C-30.67832031 82.48203125 -31.32929688 83.2296875 -32 84 C-35.99904969 84 -37.80200422 82.27413033 -41 80 C-39.19248987 74.73048635 -36.00716073 70.94599455 -32.58203125 66.62109375 C-30.77251498 64.19680502 -30.77251498 64.19680502 -31.16796875 61.8203125 C-32.03721043 59.83779485 -32.03721043 59.83779485 -33.5 57.4375 C-36.54223923 50.46570177 -36.85270168 43.32409593 -34.1015625 36.21484375 C-32.11522722 32.22104196 -29.62687995 28.59602013 -27 25 C-27.66 23.68 -28.32 22.36 -29 21 C-26.36 17.37 -23.72 13.74 -21 10 C-17 11 -17 11 -14.9375 12.5625 C-13.00053972 14.29792346 -13.00053972 14.29792346 -10 14 C-7.76115685 11.06969444 -5.7540308 8.07410182 -3.75976562 4.9765625 C-2.59961935 3.25130704 -1.30605561 1.61761074 0 0 Z " fill="#FFFFFF" transform="translate(60,7)"/>
</svg>
